# xmcd CD database file
# Copyright (C) 1997 Ti Kan
#
# Track frame offsets:
#  150
#  18630
#  49557
#  67850
#  98845
#  116852
#
# Disc length: 1802 seconds
#
# Revision: 1
# Processed by: cddbd v1.4b41PL1 Copyright (c) Steve Scherf et al.
# Submitted via: CDWizzard Release:4.32
#
DISCID=48070806
DTITLE=COLOR ME BADD - HEARTBREAKER
DYEAR=1900
DGENRE=
TTITLE0=u.k. radio attack
TTITLE1=heart attack mix
TTITLE2=the instrumental
TTITLE3=heart attack II mix
TTITLE4=original recipe
TTITLE5=heart throb mix
EXTD=
EXTT0=
EXTT1=
EXTT2=
EXTT3=
EXTT4=
EXTT5=
PLAYORDER=
